<svg width="32" height="32" viewBox="0 0 32 32" fill="none" xmlns="http://www.w3.org/2000/svg">
<path d="M8.44067 23.1779C8.44067 23.9092 9.03755 24.506 9.77192 24.506H11.2938V28.2685C11.2938 29.2217 12.0594 29.9998 13 29.9998C13.9438 29.9998 14.7063 29.2248 14.7063 28.2685V24.5029H17.3625V28.2654C17.3625 29.2185 18.1282 29.9967 19.0688 29.9967C20.0125 29.9967 20.775 29.2217 20.775 28.2654V24.5029H22.2969C23.0313 24.5029 23.6282 23.906 23.6282 23.1748V10.8248H8.44067V23.1779ZM19.6 4.42478L21.0032 2.39353C21.0844 2.27478 21.0657 2.11541 20.9563 2.03728C20.8469 1.96228 20.6907 1.99978 20.6094 2.11853L19.1532 4.23103C18.1938 3.85291 17.125 3.64353 16.0032 3.64353C14.8813 3.64353 13.8125 3.85291 12.8532 4.23103L11.3969 2.12166C11.3157 2.00291 11.1594 1.96228 11.05 2.04041C10.9407 2.11541 10.9219 2.27166 11.0032 2.39666L12.4063 4.42791C10.175 5.46541 8.61255 7.43103 8.41255 9.72791H23.6C23.3938 7.42791 21.8282 5.46228 19.6 4.42478ZM12.7969 7.62791C12.6307 7.62791 12.4681 7.5786 12.3299 7.48624C12.1917 7.39387 12.0839 7.26258 12.0203 7.10897C11.9567 6.95537 11.94 6.78635 11.9725 6.62328C12.0049 6.46022 12.0849 6.31043 12.2025 6.19287C12.3201 6.07531 12.4699 5.99524 12.6329 5.96281C12.796 5.93037 12.965 5.94702 13.1186 6.01064C13.2722 6.07427 13.4035 6.18201 13.4959 6.32025C13.5882 6.45849 13.6375 6.62102 13.6375 6.78728C13.637 7.01005 13.5482 7.22353 13.3907 7.38105C13.2332 7.53858 13.0197 7.62733 12.7969 7.62791ZM19.3094 7.62791C19.1432 7.62791 18.9806 7.5786 18.8424 7.48624C18.7042 7.39387 18.5964 7.26258 18.5328 7.10897C18.4692 6.95537 18.4525 6.78635 18.485 6.62328C18.5174 6.46022 18.5974 6.31043 18.715 6.19287C18.8326 6.07531 18.9824 5.99524 19.1454 5.96281C19.3085 5.93037 19.4775 5.94702 19.6311 6.01064C19.7847 6.07427 19.916 6.18201 20.0084 6.32025C20.1007 6.45849 20.15 6.62102 20.15 6.78728C20.1495 7.01005 20.0607 7.22353 19.9032 7.38105C19.7457 7.53858 19.5322 7.62733 19.3094 7.62791ZM26.2907 10.7748C25.3469 10.7748 24.5844 11.5498 24.5844 12.506V19.2685C24.5844 20.2217 25.35 20.9998 26.2907 20.9998C27.2344 20.9998 27.9969 20.2248 27.9969 19.2685V12.5029C28 11.5467 27.2375 10.7748 26.2907 10.7748ZM5.70942 10.7748C4.76567 10.7748 4.00317 11.5498 4.00317 12.506V19.2685C4.00317 20.2217 4.7688 20.9998 5.70942 20.9998C6.65317 20.9998 7.41567 20.2248 7.41567 19.2685V12.5029C7.41567 11.5467 6.65005 10.7748 5.70942 10.7748Z" fill="white"/>
</svg>
